<?xml version="1.0" encoding="UTF-8" standalone="no"?>
<!-- Created with Inkscape (http://www.inkscape.org/) -->

<svg
   width="646"
   height="220"
   viewBox="0 0 646 220"
   version="1.1"
   id="svg1"
   inkscape:version="1.4.2 (ebf0e940d0, 2025-05-08)"
   sodipodi:docname="logo.svg"
   xmlns:inkscape="http://www.inkscape.org/namespaces/inkscape"
   xmlns:sodipodi="http://sodipodi.sourceforge.net/DTD/sodipodi-0.dtd"
   xmlns:xlink="http://www.w3.org/1999/xlink"
   xmlns="http://www.w3.org/2000/svg"
   xmlns:svg="http://www.w3.org/2000/svg">
  <sodipodi:namedview
     id="namedview1"
     pagecolor="#ffffff"
     bordercolor="#000000"
     borderopacity="0.25"
     inkscape:showpageshadow="2"
     inkscape:pageopacity="0.0"
     inkscape:pagecheckerboard="0"
     inkscape:deskcolor="#d1d1d1"
     inkscape:document-units="px"
     inkscape:zoom="1.2696955"
     inkscape:cx="396.15798"
     inkscape:cy="129.16483"
     inkscape:window-width="1492"
     inkscape:window-height="785"
     inkscape:window-x="0"
     inkscape:window-y="0"
     inkscape:window-maximized="1"
     inkscape:current-layer="layer1" />
  <defs
     id="defs1">
    <rect
       x="217.19436"
       y="37.427749"
       width="164.02266"
       height="176.39566"
       id="rect7" />
    <linearGradient
       id="linearGradient6"
       inkscape:collect="always">
      <stop
         style="stop-color:#ffffff;stop-opacity:1;"
         offset="0"
         id="stop6" />
      <stop
         style="stop-color:#85cbcc;stop-opacity:1;"
         offset="1"
         id="stop7" />
    </linearGradient>
    <linearGradient
       id="linearGradient1"
       inkscape:collect="always">
      <stop
         style="stop-color:#f7d600;stop-opacity:1;"
         offset="0"
         id="stop1" />
      <stop
         style="stop-color:#f49300;stop-opacity:1;"
         offset="1"
         id="stop2" />
    </linearGradient>
    <linearGradient
       inkscape:collect="always"
       xlink:href="#linearGradient1"
       id="linearGradient2"
       x1="110.10833"
       y1="25.049498"
       x2="165.49597"
       y2="185.90691"
       gradientUnits="userSpaceOnUse" />
    <linearGradient
       inkscape:collect="always"
       xlink:href="#linearGradient6"
       id="linearGradient7"
       x1="214.35922"
       y1="80.810898"
       x2="214.35922"
       y2="235.0573"
       gradientUnits="userSpaceOnUse" />
  </defs>
  <g
     inkscape:label="Sun"
     inkscape:groupmode="layer"
     id="layer1"
     transform="translate(-42.739105,-10.415138)">
    <path
       style="fill:url(#linearGradient2);fill-opacity:1;stroke:none;stroke-width:8;stroke-linecap:round;stroke-linejoin:round"
       id="path1"
       sodipodi:type="arc"
       sodipodi:cx="137.80217"
       sodipodi:cy="105.4782"
       sodipodi:rx="85.063065"
       sodipodi:ry="85.063065"
       sodipodi:start="0"
       sodipodi:end="6.2755204"
       sodipodi:open="true"
       sodipodi:arc-type="arc"
       d="M 222.86523,105.4782 A 85.063065,85.063065 0 0 1 137.96517,190.54111 85.063065,85.063065 0 0 1 52.73973,105.8042 85.063065,85.063065 0 0 1 137.31317,20.416544 85.063065,85.063065 0 0 1 222.86274,104.82621" />
  </g>
  <g
     inkscape:groupmode="layer"
     id="layer4"
     inkscape:label="Title"
     transform="translate(-42.739105,-10.415138)">
    <text
       xml:space="preserve"
       id="text7"
       style="font-style:italic;font-variant:normal;font-weight:normal;font-stretch:normal;font-size:85.3333px;line-height:1.8;font-family:'0xProto Nerd Font';-inkscape-font-specification:'0xProto Nerd Font Italic';text-align:start;writing-mode:lr-tb;direction:ltr;white-space:pre;shape-inside:url(#rect7);shape-padding:3.30778;fill:#0fef0f;fill-opacity:1;stroke:none;stroke-width:8;stroke-linecap:round;stroke-linejoin:round"
       transform="translate(-28.812274,-7.3147163)"
       x="-26.496002"
       y="0"><tspan
         x="220.50391"
         y="142.42517"
         id="tspan2"><tspan
           style="font-style:normal;-inkscape-font-specification:'0xProto Nerd Font'"
           id="tspan1">$</tspan></tspan></text>
    <text
       xml:space="preserve"
       style="font-style:italic;font-variant:normal;font-weight:normal;font-stretch:normal;font-size:85.3333px;line-height:1.8;font-family:'0xProto Nerd Font';-inkscape-font-specification:'0xProto Nerd Font Italic';text-align:start;writing-mode:lr-tb;direction:ltr;text-anchor:start;fill:#0fef0f;fill-opacity:1;stroke:none;stroke-width:8;stroke-linecap:round;stroke-linejoin:round"
       x="260.21213"
       y="129.00346"
       id="text8"><tspan
         sodipodi:role="line"
         id="tspan7"
         x="260.21213"
         y="129.00346"
         style="font-size:85.3333px">weatherd</tspan></text>
  </g>
  <g
     inkscape:groupmode="layer"
     id="layer3"
     inkscape:label="Cloud"
     style="fill:#ffffff"
     transform="translate(-42.739105,-10.415138)">
    <path
       id="path2"
       style="fill:url(#linearGradient7);fill-opacity:1;stroke:none;stroke-width:8;stroke-linecap:round;stroke-linejoin:round"
       d="m 207.95506,111.15013 a 28.921442,28.921442 0 0 0 -25.59375,15.77343 39.129009,39.129009 0 0 0 -6.22265,-0.46289 39.129009,39.129009 0 0 0 -38.90235,39.2793 39.129009,39.129009 0 0 0 39.20313,38.97852 39.129009,39.129009 0 0 0 18.83203,-4.8711 36.577118,36.577118 0 0 0 18.30664,4.8711 36.577118,36.577118 0 0 0 23.26367,-8.41016 34.875858,34.875858 0 0 0 19.83203,6.14258 34.875858,34.875858 0 0 0 34.8086,-34.87696 v -0.26757 a 34.875858,34.875858 0 0 0 -29.37305,-34.17188 23.250572,23.250572 0 0 0 -21.23047,-13.47851 23.250572,23.250572 0 0 0 -10.13867,2.39062 28.921442,28.921442 0 0 0 -22.78516,-10.89648 z" />
  </g>
</svg>
